<svg width="400" height="400" viewBox="0 0 400 400" fill="none" xmlns="http://www.w3.org/2000/svg">
<g clip-path="url(#clip0_226_2)">
<path opacity="0.974" fill-rule="evenodd" clip-rule="evenodd" d="M82.5 -0.5C87.5 -0.5 92.5 -0.5 97.5 -0.5C101.447 1.48249 105.114 3.98249 108.5 7C133.333 29.1667 158.167 51.3333 183 73.5C204.167 55.6667 225.333 37.8333 246.5 20C268.34 11.836 281.673 19.1694 286.5 42C285.55 49.8995 282.217 56.5662 276.5 62C265.997 68.4174 255.663 75.0841 245.5 82C269.276 86.0371 292.276 92.7038 314.5 102C334.789 111.622 350.623 126.122 362 145.5C373.963 168.014 380.963 192.014 383 217.5C385.62 254.827 379.954 290.827 366 325.5C353.326 350.17 334.159 368.003 308.5 379C280.384 390.114 251.384 396.947 221.5 399.5C201.167 399.5 180.833 399.5 160.5 399.5C136.601 397.484 113.268 392.318 90.5 384C58.6569 368.817 37.4902 344.317 27 310.5C10.7534 258.112 11.7534 206.112 30 154.5C44.6001 122.906 68.4334 101.406 101.5 90C110.76 87.0189 120.093 84.3522 129.5 82C112.833 69.3333 96.1667 56.6667 79.5 44C67.3723 35.9504 63.8723 25.1171 69 11.5C72.478 6.17942 76.978 2.17942 82.5 -0.5ZM163.5 123.5C207.793 120.947 250.793 127.113 292.5 142C309.792 149.293 321.626 161.793 328 179.5C340.869 219.92 340.535 260.254 327 300.5C322.151 314.349 313.318 324.849 300.5 332C272.42 345.552 242.753 352.885 211.5 354C177.133 356.464 143.466 352.797 110.5 343C92.5443 335.044 80.0443 321.877 73 303.5C58.0916 261.611 57.7583 219.611 72 177.5C82.1119 152.006 100.612 136.172 127.5 130C139.469 126.845 151.469 124.678 163.5 123.5Z" fill="white"/>
<path opacity="0.978" fill-rule="evenodd" clip-rule="evenodd" d="M156.5 180.5C194.919 180.688 231.253 189.521 265.5 207C270.667 209.5 274.5 213.333 277 218.5C277.359 225.806 275.359 232.473 271 238.5C252.37 265.559 228.537 286.725 199.5 302C191.382 306.175 184.215 305.008 178 298.5C158.802 269.245 147.969 237.078 145.5 202C144.963 195.801 146.13 189.968 149 184.5C151.255 182.501 153.755 181.168 156.5 180.5Z" fill="white"/>
</g>
<defs>
<clipPath id="clip0_226_2">
<rect width="400" height="400" fill="white"/>
</clipPath>
</defs>
</svg>
